<svg
    width="500"
    height="500"
    viewBox="0 0 1024 1024"
    xmlns="http://www.w3.org/2000/svg">
    <path
        d="M512,512m-512,0a512,512 0,1 0,1024 0,512 512,0 1,0 -1024,0Z"
        fill="#66C1FB"/>
    <path

        d="M324.4,655C505.3,655 651.9,508.4 651.9,327.5c0,-152.1 -103.7,-280 -244.3,-316.9C205.8,52.5 47.5,213 9,416 47.6,553.9 174.2,655 324.4,655z"
        fill="#FFFFFF"
        fill-opacity="0.2"/>
    <path
        d="M512,1024c282.8,0 512,-229.2 512,-512 0,-31.8 -2.9,-62.9 -8.4,-93C928.1,336.1 809.9,285.3 679.8,285.3c-269.7,0 -488.4,218.6 -488.4,488.4 0,55 9.1,107.8 25.8,157.1C300.6,989.5 402.3,1024 512,1024z"
        fill="#FFFFFF"
        fill-opacity="0.15"/>
    <path
        d="M732.5,756.6c36.4,0 65.9,-29.5 65.9,-65.9 0,36.4 29.5,65.9 65.9,65.9 -17.1,0 -65.9,29.5 -65.9,65.9 0,-36.4 -29.5,-65.9 -65.9,-65.9zM159.7,247.3c25.7,0 46.5,-20.8 46.5,-46.5 0,25.7 20.8,46.5 46.5,46.5 -12,0 -46.5,20.8 -46.5,46.5 0,-25.7 -20.8,-46.5 -46.5,-46.5z"
        fill="#FFFFFF"
        fill-opacity="0.5"/>
    <path
        d="M206.2,333.3c8.6,0 15.5,-6.9 15.5,-15.5 0,8.6 6.9,15.5 15.5,15.5 -4,0 -15.5,6.9 -15.5,15.5 0,-8.6 -6.9,-15.5 -15.5,-15.5z"
        fill="#FFFFFF"
        fill-opacity="0.3"/>
    <path
        d="M721.7,650.3c0,112.5 -76.8,105.4 -199.2,105.4s-208.5,7.1 -208.5,-105.4C328.3,545.2 417.8,437.2 522.5,437.2c98.1,0 199.2,110.1 199.2,213.1z"
        fill="#FFFFFF"/>
    <path
        d="M288,454.6m-66.3,0a66.3,66.3 0,1 0,132.6 0,66.3 66.3,0 1,0 -132.6,0Z"
        fill="#FFFFFF"/>
    <path
        d="M745.3,470.9m-57.8,0a57.8,57.8 0,1 0,115.5 0,57.8 57.8,0 1,0 -115.5,0Z"
        fill="#FFFFFF"/>
    <path
        d="M623.6,343m-66.3,0a66.3,66.3 0,1 0,132.6 0,66.3 66.3,0 1,0 -132.6,0Z"
        fill="#FFFFFF"/>
    <path
        d="M434.9,343.4m-76,0a76,76 0,1 0,151.9 0,76 76,0 1,0 -151.9,0Z"
        fill="#FFFFFF"/>
</svg>